<?xml version="1.0" encoding="iso-8859-1"?>
<!-- Uploaded to: SVG Repo, www.svgrepo.com, Generator: SVG Repo Mixer Tools -->
<svg height="800px" width="800px" version="1.1" id="Layer_1" xmlns="http://www.w3.org/2000/svg" xmlns:xlink="http://www.w3.org/1999/xlink" 
	 viewBox="0 0 512 512" xml:space="preserve">
<path style="fill:#4EBFED;" d="M230.994,145.499v246.909c0,23.044-18.69,41.734-41.734,41.734h-27.376
	c-15.173,0-27.477,12.303-27.477,27.477v22.754h96.587h50.23h96.587v-22.754c0-15.173-12.303-27.477-27.477-27.477h-27.376
	c-23.044,0-41.734-18.69-41.734-41.734V145.499V74.692V52.117c0-13.866-11.243-25.121-25.11-25.121
	c-6.945,0-13.219,2.813-17.764,7.358c-4.544,4.555-7.358,10.83-7.358,17.764v22.575"/>
<g>
	<path style="fill:#3BA4BC;" d="M246.621,392.408V145.499V74.692V52.117c0-6.934,2.813-13.208,7.358-17.764
		c2.756-2.756,6.153-4.87,9.945-6.111c-2.459-0.805-5.082-1.246-7.81-1.246c-6.945,0-13.219,2.814-17.763,7.358
		c-4.544,4.555-7.358,10.83-7.358,17.764v22.575V145.5v246.909c0,23.044-18.69,41.734-41.734,41.734h15.627
		C227.932,434.143,246.621,415.453,246.621,392.408z"/>
	<path style="fill:#3BA4BC;" d="M177.511,434.143h-15.627c-15.173,0-27.477,12.303-27.477,27.477v22.754h15.627V461.62
		C150.035,446.446,162.338,434.143,177.511,434.143z"/>
</g>
<polyline style="fill:#4EBFED;" points="215.095,95.861 35.9,95.861 35.9,124.331 215.095,124.331 297.123,124.331 476.33,124.331 
	476.33,95.861 297.123,95.861 "/>
<path style="fill:#FCD577;" d="M8.291,284.594c0,44.394,35.989,80.383,80.383,80.383s80.383-35.989,80.383-80.383H8.291z"/>
<path style="fill:#EAC36E;" d="M32.013,284.594H8.291c0,44.394,35.989,80.383,80.383,80.383c4.03,0,7.99-0.305,11.861-0.878
	C61.766,358.363,32.013,324.956,32.013,284.594z"/>
<path style="fill:#FCD577;" d="M343.164,284.594c0,44.394,35.989,80.383,80.383,80.383s80.383-35.989,80.383-80.383H343.164z"/>
<path style="fill:#EAC36E;" d="M366.887,284.594h-23.722c0,44.394,35.989,80.383,80.383,80.383c4.03,0,7.99-0.305,11.861-0.878
	C396.639,358.363,366.887,324.956,366.887,284.594z"/>
<circle style="fill:#FCD577;" cx="256.115" cy="110.099" r="43.4"/>
<path d="M350.224,426.278h-27.376c-18.501,0-33.553-15.052-33.553-33.553V171.706c0-4.518-3.662-8.18-8.18-8.18
	c-4.519,0-8.181,3.663-8.181,8.18v221.019c0,27.522,22.391,49.914,49.914,49.914h27.376c10.64,0,19.296,8.656,19.296,19.296v14.573
	H142.477v-14.573c0-10.64,8.656-19.296,19.296-19.296h27.376c27.522,0,49.915-22.392,49.915-49.914v-64.711
	c0-4.518-3.663-8.181-8.18-8.181c-4.518,0-8.18,3.663-8.18,8.181v64.711c0,18.501-15.052,33.553-33.554,33.553h-27.376
	c-19.662,0-35.657,15.996-35.657,35.657v22.754c0,4.518,3.663,8.181,8.18,8.181H377.7c4.519,0,8.18-3.663,8.18-8.181v-22.754
	C385.882,442.273,369.886,426.278,350.224,426.278z"/>
<path d="M503.82,276.728h-24.621l-44.658-143.902h41.679c4.519,0,8.18-3.663,8.18-8.18v-28.47c0-4.518-3.662-8.181-8.18-8.181
	h-173.77c-3.164-6.53-7.672-12.29-13.154-16.935V52.432c0-18.362-14.933-33.301-33.29-33.301c-8.895,0-17.258,3.464-23.554,9.76
	c-6.286,6.3-9.747,14.661-9.747,23.541v18.63c-5.481,4.645-9.989,10.403-13.153,16.934H138.53c-4.518,0-8.18,3.663-8.18,8.181
	s3.663,8.18,8.18,8.18h66.257c-0.233,1.988-0.368,4.006-0.368,6.056c0,2.049,0.134,4.066,0.368,6.054H43.971v-12.109h66.646
	c4.518,0,8.181-3.663,8.181-8.18s-3.663-8.181-8.181-8.181H35.79c-4.518,0-8.18,3.663-8.18,8.181v28.47
	c0,4.518,3.663,8.181,8.18,8.181h41.668L32.803,276.728H8.181c-4.518,0-8.181,3.663-8.181,8.181
	c0,48.833,39.729,88.563,88.563,88.563s88.563-39.729,88.563-88.563c0-4.518-3.663-8.18-8.18-8.18h-24.621L99.667,132.827h109.883
	c3.164,6.531,7.672,12.29,13.154,16.936v150.339c0,4.518,3.663,8.181,8.18,8.181c4.518,0,8.18-3.663,8.18-8.181V159.123
	c5.309,1.851,11.004,2.87,16.936,2.87c20.414,0,38.094-11.921,46.45-29.166h109.883l-44.658,143.902h-24.621
	c-4.519,0-8.181,3.663-8.181,8.181c0,48.833,39.729,88.563,88.562,88.563c24.123,0,46.671-9.525,63.494-26.821
	c3.15-3.238,3.077-8.418-0.16-11.567c-3.242-3.151-8.419-3.077-11.568,0.16c-13.714,14.101-32.098,21.867-51.764,21.867
	c-37.047,0-67.666-28.046-71.741-64.022h22.008h99.468h22.014c-0.827,7.38-2.78,14.53-5.837,21.34
	c-1.849,4.122-0.008,8.963,4.114,10.812c4.121,1.849,8.964,0.008,10.812-4.114c5.124-11.422,7.723-23.608,7.723-36.219
	C512,280.391,508.337,276.728,503.82,276.728z M88.563,357.111c-37.047,0-67.667-28.046-71.741-64.022H38.83h99.468h22.007
	C156.229,329.065,125.61,357.111,88.563,357.111z M49.933,276.728l38.631-124.481l38.631,124.481L49.933,276.728L49.933,276.728z
	 M239.065,52.432c0-4.518,1.765-8.774,4.962-11.978c3.199-3.199,7.453-4.962,11.978-4.962c9.336,0,16.929,7.599,16.929,16.94V61.7
	c-5.309-1.851-11.003-2.87-16.934-2.87c-5.931,0-11.627,1.019-16.936,2.87L239.065,52.432L239.065,52.432z M256.001,145.632
	c-19.421,0-35.221-15.799-35.221-35.22s15.8-35.221,35.221-35.221c19.421,0,35.22,15.8,35.22,35.221S275.42,145.632,256.001,145.632
	z M307.214,104.356h160.825v12.109H307.214c0.233-1.987,0.368-4.005,0.368-6.054C307.581,108.363,307.447,106.345,307.214,104.356z
	 M384.806,276.728l38.629-124.481l38.63,124.481L384.806,276.728L384.806,276.728z"/>
<path d="M256.001,87.228c-12.784,0-23.185,10.4-23.185,23.185s10.4,23.185,23.185,23.185c12.783,0,23.184-10.4,23.184-23.185
	S268.783,87.228,256.001,87.228z M256.001,117.236c-3.762,0-6.824-3.061-6.824-6.824c0-3.763,3.062-6.824,6.824-6.824
	c3.762,0,6.823,3.061,6.823,6.824C262.823,114.175,259.763,117.236,256.001,117.236z"/>
</svg>